# xmcd
#
# Track frame offsets: 
#        150
#        24075
#        40676
#        54447
#        75204
#        88306
#        111631
#        135441
#        153286
#        167006
#        188691
#        204002
#        227552
#        237063
#        256551
#        273660
#        290140
#        314472
#
# Disc length: 4372 seconds
#
# Revision: 6
# Processed by: cddbd v1.5.2PL0 Copyright (c) Steve Scherf et al.
# Submitted via: ExactAudioCopy v1.0b3
#
DISCID=df111212
DTITLE=Popa Chubby - New York City Blues
DYEAR=2000
DGENRE=Blues
TTITLE0=Popa Chubby - I Can't Forget The Things You Said
TTITLE1=Popa Chubby feat. Arthur Neilson - Woman You Must Be Crazy
TTITLE2=Popa Chubby feat. Big Ed Sullivan - Stranded In Vegas
TTITLE3=Popa Chubby feat. Arthur Neilson - Fenderbender
TTITLE4=Dimitri and Popa Chubby - Guard My Heart
TTITLE5=Popa Chubby feat. Matt Smith - All Good Things
TTITLE6=Popa Chubby feat. James T. Tillson - The Day That I Walked In
TTITLE7=Bobby Carson - Madman Blues and Drivin' To Dallas
TTITLE8=Popa Chubby feat. Arthur Neilson - Big Sister Betty
TTITLE9=Popa Chubby feat. James T. Tillson - Shaken Blue
TTITLE10=Popa Chubby - Lie Down With The Blues
TTITLE11=James T. Tillson and Popa Chubby - Telephone Woman
TTITLE12=Popa Chubby feat. Matt Smith - Bleecker Street Boogie
TTITLE13=Popa Chubby feat. Big Ed Sullivan - Rock And Roll Zombie
TTITLE14=Popa Chubby feat. Arthur Neilson - Walkin' With Danny
TTITLE15=Popa Chubby feat. Bobby Carson - I Think I'm Gonna Pop
TTITLE16=James T. Tillson and Popa Chubby - Rested In The Mornin'
TTITLE17=Popa Chubby - Lo Han Sway
EXTD=YEAR: 1999
EXTT0=
EXTT1=
EXTT2=
EXTT3=
EXTT4=
EXTT5=
EXTT6=
EXTT7=
EXTT8=
EXTT9=
EXTT10=
EXTT11=
EXTT12=
EXTT13=
EXTT14=
EXTT15=
EXTT16=
EXTT17=
PLAYORDER=
